<svg xmlns="http://www.w3.org/2000/svg" version="1.1" xmlns:xlink="http://www.w3.org/1999/xlink" xmlns:svgjs="http://svgjs.com/svgjs" width="512" height="512" x="0" y="0" viewBox="0 0 32 32" style="enable-background:new 0 0 512 512" xml:space="preserve" class=""><g><path fill="#f6bc00" d="M27.204 24.364c-.052-.5-.125-1.015-.221-1.542-.828-4.561-3.023-7.953-5.073-10.26A2.498 2.498 0 0 0 23 10.5a2.494 2.494 0 0 0-2.256-2.475l1.279-4.475a1.985 1.985 0 0 0-.326-1.754 1.987 1.987 0 0 0-1.598-.795h-2.674c-1.103 0-2 .897-2 2h-3.523a2 2 0 0 0-1.857 2.743l.927 2.316a2.502 2.502 0 0 0-1.971 2.441 2.5 2.5 0 0 0 1.09 2.062c-2.05 2.306-4.245 5.699-5.074 10.26a20.92 20.92 0 0 0-.22 1.541 6.007 6.007 0 0 0 5.972 6.637h10.465a6.007 6.007 0 0 0 5.972-6.636zM21 10.5a.5.5 0 0 1-.5.5h-9a.5.5 0 0 1 0-1H20.501a.5.5 0 0 1 .5.5zM15.425 5v1a1 1 0 1 0 2 0V3h2.674L18.67 8h-5.568l-1.201-3h3.523zm8.777 22.68a3.95 3.95 0 0 1-2.97 1.32H10.768a3.954 3.954 0 0 1-2.97-1.32 4.03 4.03 0 0 1-1.012-3.112c.046-.45.111-.914.197-1.389.862-4.738 3.366-8.113 5.426-10.179h7.182c2.06 2.065 4.563 5.44 5.425 10.178.087.476.152.939.198 1.391a4.029 4.029 0 0 1-1.012 3.111z" data-original="#0c474d" class=""></path><path fill="#000000" d="M16.44 20h-.94a.5.5 0 0 1 0-1h2.44a1 1 0 1 0 0-2H17v-1a1 1 0 1 0-2 0v1c0 .018.009.032.01.05A2.503 2.503 0 0 0 13 19.5c0 1.378 1.121 2.5 2.5 2.5h.94c.275 0 .5.224.5.544a.5.5 0 0 1-.5.5H14a1 1 0 1 0 0 2h1V26a1 1 0 1 0 2 0v-1c0-.008-.004-.015-.005-.023A2.518 2.518 0 0 0 18.94 22.5c0-1.378-1.121-2.5-2.5-2.5z" data-original="#3cacb6" class=""></path></g></svg>