<svg xmlns="http://www.w3.org/2000/svg" version="1.1" xmlns:xlink="http://www.w3.org/1999/xlink" xmlns:svgjs="http://svgjs.com/svgjs" width="512" height="512" x="0" y="0" viewBox="0 0 64 64" style="enable-background:new 0 0 512 512" xml:space="preserve" class=""><g><g data-name="Layer 30"><path d="M41.59 46.41 24 35.07a1.5 1.5 0 1 0-1.62 2.52L40 48.93a1.5 1.5 0 1 0 1.62-2.52zM23.22 29.17a1.5 1.5 0 0 0 .81-.24l17.56-11.34A1.5 1.5 0 1 0 40 15.07L22.41 26.41a1.5 1.5 0 0 0 .81 2.76z" fill="#f6bc00" data-original="#000000"></path><g fill="#39b54a"><path d="M47.5 21.5A9.5 9.5 0 1 0 38 12a9.51 9.51 0 0 0 9.5 9.5zm0-16A6.5 6.5 0 1 1 41 12a6.51 6.51 0 0 1 6.5-6.5zM16.5 22.5A9.5 9.5 0 1 0 26 32a9.51 9.51 0 0 0-9.5-9.5zm0 16A6.5 6.5 0 1 1 23 32a6.51 6.51 0 0 1-6.5 6.5zM47.5 42.5A9.5 9.5 0 1 0 57 52a9.51 9.51 0 0 0-9.5-9.5zm0 16A6.5 6.5 0 1 1 54 52a6.51 6.51 0 0 1-6.5 6.5z" fill="#000000" data-original="#39b54a" class=""></path></g></g></g></svg>