<svg xmlns="http://www.w3.org/2000/svg" version="1.1" xmlns:xlink="http://www.w3.org/1999/xlink" xmlns:svgjs="http://svgjs.com/svgjs" width="512" height="512" x="0" y="0" viewBox="0 0 512 512" style="enable-background:new 0 0 512 512" xml:space="preserve" class=""><g><path d="M256.444 20.608c-130.043 0-235.838 105.795-235.838 235.838s105.795 235.838 235.838 235.838 235.838-105.795 235.838-235.838S386.487 20.608 256.444 20.608zm139.017 244.756L187.249 385.573c-4.929 2.845-11.23 1.156-14.075-3.771a10.311 10.311 0 0 1-1.381-5.147V136.237c.002-5.691 4.618-10.301 10.308-10.299 1.807.001 3.582.477 5.147 1.381l208.213 120.208c4.929 2.845 6.618 9.146 3.773 14.075a10.298 10.298 0 0 1-3.773 3.773v-.011z" style="" fill="#ffffff" data-original="#ebecee" class=""></path><path d="m192.413 358.806 177.29-102.36-177.29-102.361z" style="" fill="#f6bc00" data-original="#f6bc00" class=""></path><path d="M256.444.001C114.814.003.001 114.82.003 256.45a256.44 256.44 0 0 0 75.109 181.327c100.639 99.655 263.008 98.857 362.663-1.783 98.963-99.94 98.963-260.942 0-360.882A254.774 254.774 0 0 0 256.444.001zm0 492.282c-130.043 0-235.838-105.795-235.838-235.838S126.402 20.608 256.444 20.608s235.838 105.795 235.838 235.838-105.795 235.837-235.838 235.837z" style="" fill="#2d3b41" data-original="#3c6888" class=""></path><path d="M395.461 247.527 187.249 127.319c-4.929-2.845-11.23-1.156-14.075 3.771a10.311 10.311 0 0 0-1.381 5.147v240.417c.002 5.691 4.618 10.301 10.308 10.299a10.301 10.301 0 0 0 5.147-1.381l208.213-120.208c4.929-2.845 6.618-9.146 3.773-14.075a10.298 10.298 0 0 0-3.773-3.773v.011zM192.413 358.806V154.085l177.29 102.36-177.29 102.361z" style="" fill="#2d3b41" data-original="#3c6888" class=""></path></g></svg>