<svg xmlns="http://www.w3.org/2000/svg" version="1.1" xmlns:xlink="http://www.w3.org/1999/xlink" xmlns:svgjs="http://svgjs.com/svgjs" width="512" height="512" x="0" y="0" viewBox="0 0 512 512" style="enable-background:new 0 0 512 512" xml:space="preserve" class=""><g><path d="M474.596 145.206c16.422 32.898 26.388 71.526 26.388 110.794 0 135.306-109.687 244.992-244.992 244.992S11 391.306 11 256 120.687 11.008 255.992 11.008c61.533 0 119.121 23.857 162.15 61.32" style="stroke-width:22;stroke-linecap:round;stroke-linejoin:round;stroke-miterlimit:10;" fill="none" stroke="#f6bc00" stroke-width="22" stroke-linecap="round" stroke-linejoin="round" stroke-miterlimit="10" data-original="#000000" class=""></path><path d="M126.275 199.791c0-20.571 16.676-37.248 37.248-37.248s37.248 16.676 37.248 37.248M309.596 199.791c0-20.571 16.676-37.248 37.248-37.248s37.248 16.676 37.248 37.248M409.652 300.373c0 72.827-68.792 131.865-153.652 131.865S102.348 373.2 102.348 300.373h307.304zM123.088 366.305h265.864" style="stroke-width:22;stroke-linecap:round;stroke-linejoin:round;stroke-miterlimit:10;" fill="none" stroke="#f6bc00" stroke-width="22" stroke-linecap="round" stroke-linejoin="round" stroke-miterlimit="10" data-original="#000000" class=""></path><path d="m455.122 11.008 39.71 69.965c4.043 7.123 6.168 13.531 6.168 21.721h0c0 26.142-21.192 47.334-47.334 47.334h0c-26.142 0-47.334-21.192-47.334-47.334h0c0-8.622 2.355-14.754 6.81-22.136l41.98-69.55z" style="stroke-width:22;stroke-linecap:round;stroke-linejoin:round;stroke-miterlimit:22.9256;" fill="none" stroke="#2d3b41" stroke-width="22" stroke-linecap="round" stroke-linejoin="round" stroke-miterlimit="22.9256" data-original="#33cccc" class=""></path></g></svg>