<svg width="500" height="133" viewBox="0 0 500 133" fill="none" xmlns="http://www.w3.org/2000/svg">
<path d="M277.184 49.1078C280.749 49.0111 284.297 49.6242 287.622 50.9113C290.266 52.0089 292.689 53.5756 294.774 55.5354C296.648 57.2971 298.212 59.3602 299.403 61.6391C300.461 63.6899 301.307 65.8438 301.926 68.0667C302.429 69.8422 302.763 71.6614 302.921 73.5C303.037 75.0722 303.083 76.1589 303.083 76.7369V82.4477H260.797C260.892 83.6302 261.19 84.7877 261.677 85.8696C262.357 87.5014 263.303 89.0092 264.477 90.3319C265.905 91.9364 267.625 93.2546 269.546 94.2161C271.924 95.3642 274.544 95.9196 277.184 95.8346C279.971 95.8735 282.753 95.5785 285.47 94.956C287.661 94.4637 289.812 93.8067 291.904 92.9906C293.909 92.2461 295.826 91.2847 297.621 90.1237V102.378C296.699 103.269 295.593 103.948 294.38 104.366C292.62 105.098 290.801 105.678 288.941 106.1C286.882 106.563 284.798 106.979 282.669 107.302C280.857 107.617 279.023 107.787 277.184 107.811C275.914 107.77 274.647 107.662 273.388 107.487C271.421 107.196 269.489 106.7 267.625 106.008C265.357 105.158 263.185 104.074 261.144 102.771C258.839 101.276 256.791 99.4172 255.08 97.268C253.111 94.7496 251.592 91.9103 250.59 88.8752C249.331 84.9952 248.736 80.9304 248.831 76.8525C248.848 73.5006 249.5 70.1823 250.752 67.0725C252.025 63.7818 253.91 60.7614 256.307 58.171C258.823 55.4596 261.841 53.2611 265.195 51.6973C268.944 49.9395 273.043 49.0541 277.184 49.1078V49.1078ZM291.071 72.5984C290.843 70.2811 290.133 68.0368 288.988 66.0089C287.938 64.2075 286.537 62.635 284.868 61.3848C282.661 59.8773 280.015 59.1455 277.346 59.3041C274.584 59.212 271.837 59.7496 269.314 60.8762C267.399 61.7758 265.684 63.0494 264.269 64.6218C263.11 65.8992 262.213 67.3917 261.63 69.0146C261.177 70.1512 260.912 71.3537 260.843 72.5753L291.071 72.5984Z" fill="#2D3B41"/>
<path d="M357.057 52.2525L371.963 86.9334L386.636 52.2525C386.781 51.9115 387.023 51.6204 387.331 51.415C387.64 51.2095 388.002 51.0987 388.372 51.0965H401.033L367.843 131.695H353.956L365.181 104.251L343.078 51.0735H355.553C355.885 51.1217 356.198 51.2558 356.462 51.4627C356.726 51.6696 356.931 51.9419 357.057 52.2525V52.2525Z" fill="#2D3B41"/>
<path d="M406.541 51.0737H418.506V56.4607C419.733 54.9879 421.225 53.7569 422.904 52.8307C424.942 51.7932 427.083 50.9718 429.292 50.38C432.515 49.5288 435.842 49.1396 439.175 49.2239V61.2698C436.965 61.2897 434.76 61.4751 432.579 61.8247C430.265 62.1675 427.997 62.7726 425.82 63.6281C423.878 64.3883 422.108 65.5279 420.613 66.9805C419.921 67.6506 419.377 68.4571 419.014 69.3487C418.652 70.2404 418.479 71.1977 418.506 72.1597V107.742H406.541V51.0737Z" fill="#2D3B41"/>
<path d="M500 51.0737V107.742H488.011V99.835C485.503 103.08 482.351 105.772 478.753 107.742C475.279 109.587 471.422 110.597 467.489 110.694C463.556 110.79 459.654 109.97 456.094 108.297C452.748 106.692 449.746 104.454 447.253 101.708C443.282 97.2057 440.618 91.7051 439.549 85.8006C438.481 79.8961 439.047 73.8121 441.189 68.206C442.586 64.6354 444.617 61.3459 447.183 58.4953C449.664 55.7351 452.669 53.4952 456.025 51.906C459.398 50.3298 463.086 49.5392 466.81 49.594C470.948 49.5702 475.027 50.5711 478.683 52.5072C482.309 54.4588 485.467 57.1723 487.941 60.4607V51.2124L500 51.0737ZM469.912 98.4015C472.298 98.4087 474.661 97.9288 476.855 96.9912C478.995 96.0696 480.937 94.7427 482.572 93.0838C484.201 91.4167 485.511 89.4655 486.437 87.3268C488.318 82.7734 488.318 77.661 486.437 73.1076C485.524 70.9416 484.213 68.9655 482.572 67.2811C480.937 65.6223 478.995 64.2954 476.855 63.3738C474.63 62.4434 472.242 61.9644 469.831 61.9644C467.419 61.9644 465.031 62.4434 462.806 63.3738C460.651 64.306 458.689 65.6311 457.02 67.2811C455.357 68.9523 454.036 70.9314 453.131 73.1076C452.185 75.3586 451.697 77.7756 451.697 80.2172C451.697 82.6587 452.185 85.0758 453.131 87.3268C454.049 89.4757 455.368 91.4298 457.02 93.0838C458.689 94.7339 460.651 96.0589 462.806 96.9912C465.072 97.9609 467.517 98.4414 469.981 98.4015H469.912Z" fill="#2D3B41"/>
<path d="M334.028 51.0736H327.246V45.2703C327.221 44.0485 327.353 42.8285 327.64 41.6404C327.755 41.1598 327.966 40.7073 328.26 40.3101C328.555 39.9128 328.926 39.5789 329.353 39.3283C330.551 38.6695 331.877 38.2753 333.241 38.1723C335.6 37.9176 337.973 37.8095 340.346 37.8486V26.5889C338.032 26.5889 335.37 26.5889 332.477 26.9357C329.647 27.1245 326.873 27.8134 324.284 28.9704C321.661 30.1464 319.418 32.0275 317.803 34.4036C315.854 37.5949 314.932 41.3076 315.165 45.0391V51.0736H305.907V63.0501H315.396V107.742H327.362V63.0501H340.416L335.926 52.2758C335.773 51.9038 335.508 51.5884 335.168 51.3731C334.828 51.1577 334.43 51.0531 334.028 51.0736V51.0736Z" fill="#2D3B41"/>
<path d="M213.188 68.3215H206.615L210.827 78.4715C210.967 78.8161 211.207 79.1107 211.516 79.3169C211.826 79.5231 212.191 79.6314 212.563 79.6275H230.107V92.1588C228.437 93.3077 226.57 94.1386 224.598 94.6096C222.422 95.2254 220.172 95.5443 217.909 95.5576C214.088 95.5459 210.308 94.7593 206.8 93.2456C203.431 91.8444 200.372 89.7938 197.796 87.211C195.215 84.6214 193.157 81.5602 191.732 78.194C190.257 74.6891 189.509 70.9215 189.534 67.1193C189.512 63.3473 190.26 59.6104 191.732 56.137C194.582 49.4182 199.911 44.0529 206.615 41.1548C210.439 39.4815 214.593 38.6912 218.766 38.8427C220.452 38.9 222.127 39.1324 223.765 39.5363C225.644 39.9807 227.48 40.592 229.25 41.3629C230.88 42.034 232.432 42.8789 233.879 43.883C235.097 44.708 236.222 45.6615 237.235 46.7269L243.184 34.9816C241.864 34.0337 240.36 33.0164 238.67 31.9528C236.854 30.8356 234.941 29.8839 232.954 29.1091C230.701 28.2234 228.379 27.5273 226.01 27.0282C223.193 26.4481 220.322 26.1691 217.446 26.1958C211.983 26.1589 206.571 27.2449 201.546 29.3865C196.714 31.4494 192.316 34.4068 188.585 38.1029C184.864 41.8273 181.894 46.2306 179.836 51.0736C177.743 56.1 176.665 61.4903 176.665 66.9343C176.665 72.3783 177.743 77.7686 179.836 82.795C183.974 92.569 191.762 100.348 201.546 104.482C206.571 106.624 211.983 107.71 217.446 107.673C222.151 107.696 226.833 107.01 231.333 105.638C235.685 104.319 239.724 102.132 243.207 99.2106V68.3215H213.118H213.188Z" fill="#2D3B41"/>
<path d="M137.499 80.8449L125.624 29.6499C125.328 28.3574 124.738 27.1478 123.898 26.1123C123.058 25.0769 121.991 24.2425 120.777 23.6721L72.7449 0.877417C71.5354 0.299994 70.2088 0 68.8646 0C67.5205 0 66.1938 0.299994 64.9843 0.877417L16.9304 23.6721C15.7158 24.2425 14.6485 25.0769 13.8088 26.1123C12.9691 27.1478 12.379 28.3574 12.0828 29.6499L0.230541 80.8449C-0.0731351 82.1326 -0.0768509 83.4714 0.219683 84.7607C0.516216 86.0501 1.10532 87.2566 1.94279 88.2898L35.2981 129.347C36.1333 130.381 37.1952 131.215 38.4044 131.788C39.6136 132.36 40.9387 132.656 42.2804 132.653H95.6489C96.9944 132.659 98.3238 132.365 99.5371 131.793C100.75 131.22 101.816 130.383 102.654 129.347L135.898 88.2898C136.716 87.2474 137.285 86.0366 137.562 84.7476C137.839 83.4585 137.818 82.1245 137.499 80.8449V80.8449ZM123.445 81.2172C123.247 82.3018 122.669 83.2837 121.812 83.9919C120.955 84.7001 119.872 85.0898 118.753 85.0929C118.317 85.0884 117.884 85.0295 117.463 84.9177L102.364 80.7354L88.5553 97.8369L95.2264 112.376C95.7204 113.377 95.8508 114.514 95.5958 115.598C95.3408 116.682 94.7159 117.647 93.8255 118.332C93.256 118.748 92.5996 119.033 91.9041 119.166C91.2086 119.3 90.4915 119.279 89.8054 119.104C89.1192 118.93 88.4811 118.607 87.9379 118.159C87.3946 117.711 86.9598 117.15 86.6652 116.515L79.8385 101.866H57.7573L50.9528 116.515C50.6557 117.15 50.2186 117.712 49.6733 118.16C49.128 118.608 48.4881 118.931 47.8003 119.105C47.1125 119.279 46.3939 119.3 45.6968 119.166C44.9997 119.033 44.3416 118.748 43.7703 118.332C42.8834 117.655 42.2601 116.697 42.0051 115.621C41.75 114.545 41.8786 113.414 42.3694 112.42L49.0404 97.8369L35.1869 80.7354L20.1547 84.9177C19.7265 85.0297 19.2858 85.0886 18.8428 85.0929C17.7237 85.0898 16.6412 84.7001 15.7839 83.9919C14.9265 83.2837 14.3486 82.3018 14.1508 81.2172C13.9809 80.0292 14.261 78.8213 14.9378 77.8238C15.6145 76.8262 16.6404 76.1089 17.8199 75.8086L32.8965 71.6044L37.7664 50.2111L26.1809 41.54C25.6427 41.1502 25.1937 40.6533 24.8634 40.0814C24.5331 39.5095 24.3288 38.8755 24.2638 38.2207C24.1987 37.5659 24.2745 36.905 24.486 36.281C24.6976 35.6569 25.0402 35.0837 25.4916 34.5987C26.3478 33.7195 27.5067 33.1871 28.7409 33.1061C29.9752 33.0251 31.1956 33.4012 32.1627 34.1607L44.0149 42.7881L64.3171 33.241V18.811C64.3167 18.1519 64.4569 17.5 64.7286 16.8976C65.0002 16.2952 65.3973 15.7557 65.894 15.314C66.3908 14.8723 66.9763 14.5382 67.6125 14.3334C68.2487 14.1286 68.9215 14.0576 69.5873 14.125C70.7913 14.2911 71.8913 14.887 72.6784 15.7993C73.4656 16.7116 73.8849 17.8769 73.8568 19.0737V33.241L94.1146 42.7881L106.256 34.0293C106.793 33.6381 107.408 33.3625 108.06 33.2207C108.712 33.0789 109.388 33.0739 110.042 33.2061C110.697 33.3383 111.316 33.6047 111.859 33.988C112.402 34.3713 112.857 34.8628 113.194 35.4307C113.775 36.4786 113.945 37.7006 113.67 38.8637C113.395 40.0268 112.696 41.0496 111.704 41.737L97.4723 52.0724H97.3611C96.9949 52.3358 96.59 52.5426 96.1603 52.6855H95.9824C95.6 52.7987 95.2032 52.8577 94.8039 52.8607H94.5593C94.2855 52.8833 94.0103 52.8833 93.7365 52.8607H93.5364C93.2051 52.7906 92.8839 52.6803 92.5802 52.5322V52.5322L78.8156 45.9632C75.7913 44.5417 72.4826 43.8039 69.1314 43.8039C65.7803 43.8039 62.4716 44.5417 59.4473 45.9632L57.4682 46.9047C54.4094 48.3377 51.7235 50.4399 49.6155 53.0507C47.5074 55.6616 46.033 58.7123 45.3047 61.9698L44.8599 63.8529C44.135 67.0851 44.1584 70.4364 44.9283 73.6585C45.6982 76.8805 47.1948 79.8906 49.3073 82.4653L50.686 84.1513C52.7832 86.7467 55.4479 88.8427 58.4817 90.2834C61.5156 91.7241 64.8404 92.4722 68.2086 92.4722H70.2766C73.6281 92.4754 76.937 91.7326 79.9559 90.2993C82.9749 88.866 85.6257 86.7793 87.7103 84.1951L92.7136 77.9983L67.9195 71.2103C67.2758 71.0351 66.6767 70.7285 66.1612 70.3104C65.6457 69.8922 65.2254 69.3719 64.9276 68.7833C64.6297 68.1947 64.4611 67.5509 64.4325 66.8939C64.404 66.2368 64.5162 65.5812 64.7619 64.9697C65.2403 63.8722 66.1123 62.9866 67.2115 62.4818C68.3106 61.9769 69.56 61.8882 70.7214 62.2325L101.786 70.8161L119.576 75.7867C120.792 76.0456 121.866 76.7455 122.582 77.7474C123.299 78.7494 123.607 79.9801 123.445 81.1953V81.2172Z" fill="#F6BC00"/>
</svg>
