<svg xmlns="http://www.w3.org/2000/svg" version="1.1" xmlns:xlink="http://www.w3.org/1999/xlink" xmlns:svgjs="http://svgjs.com/svgjs" width="512" height="512" x="0" y="0" viewBox="0 0 512 512" style="enable-background:new 0 0 512 512" xml:space="preserve" class=""><g><path fill="#f6bc00" d="M505.082 400.34a30.339 30.339 0 0 0-5.153-16.948 30.49 30.49 0 0 0-6.971-52.557 30.5 30.5 0 0 0-27.614-43.482H380.1l4.752-4.643.083-.082a32.464 32.464 0 0 0-45.559-46.257l-86.006 71.637h-1.427l-46.285-55.569.083-4.395 45.115-37.244-12.864-15.1-78.462 64.856-.669.611a12.5 12.5 0 0 1-17.718-17.644l39.745-38.837H46.656a10.554 10.554 0 1 1 0-21.107h32.5V163.45H30.515a10.554 10.554 0 1 1 0-21.107h48.643v-20.129H37.432a10.554 10.554 0 1 1 0-21.107h41.726V80.978h-32.5a10.554 10.554 0 1 1 0-21.107h137.466l55.557 26.518h34.273V66.428H244.2L188.644 39.91H46.656a30.5 30.5 0 0 0-26.085 46.334 30.468 30.468 0 0 0-8.5 42.364 30.49 30.49 0 0 0 6.971 52.557 30.5 30.5 0 0 0 27.614 43.482h21.368v42.137l-26.517 55.558V464.33a30.5 30.5 0 0 0 46.334 26.085 30.469 30.469 0 0 0 42.363 8.5 30.491 30.491 0 0 0 52.558-6.971 30.5 30.5 0 0 0 43.482-27.614v-18.758H267.8l55.558 26.518h141.986a30.5 30.5 0 0 0 26.085-46.334 30.508 30.508 0 0 0 13.653-25.416zM206.283 330.1V355h-.18v90.575h.18v18.755a10.554 10.554 0 1 1-21.108 0v-32.5h-20.128v48.644a10.554 10.554 0 1 1-21.107 0v-48.647h-20.129v41.727a10.554 10.554 0 0 1-21.107 0v-41.727h-20.13v32.5a10.553 10.553 0 1 1-21.106 0V326.861L87.985 271.3v-46.25h43.5l-4.34 4.24-.082.081a32.464 32.464 0 0 0 45.559 46.257l15.569-12.968 73.959 88.795.611.67a12.5 12.5 0 0 1-17.643 17.718zm275.2 39.561h-48.642v20.129h41.726a10.554 10.554 0 1 1 0 21.107h-41.726v20.129h32.5a10.554 10.554 0 1 1 0 21.107H327.875l-55.557-26.518h-46.074v-46.529l4.643 4.752.081.082a32.463 32.463 0 0 0 46.257-45.558L265.3 324.048l87.166-72.6.668-.611a12.5 12.5 0 0 1 17.718 17.646l-39.742 38.831h134.234a10.554 10.554 0 1 1 0 21.107h-32.5v20.129h48.644a10.554 10.554 0 1 1 0 21.107z" data-original="#150f91" class=""></path><path fill="#000000" d="M439.979 17.155a30.329 30.329 0 0 0-15.82 4.43 30.47 30.47 0 0 0-42.364-8.5 30.49 30.49 0 0 0-52.557 6.972 30.5 30.5 0 0 0-43.483 27.613v85.244l-4.643-4.752-.081-.083a32.463 32.463 0 0 0-46.257 45.558l64.08 76.738 15.646-12.409-64.65-77.421-.611-.67a12.5 12.5 0 0 1 17.645-17.716l38.832 39.741V47.67a10.554 10.554 0 0 1 21.108 0v32.5h20.129V31.529a10.553 10.553 0 1 1 21.106 0v48.644h20.13V38.446a10.554 10.554 0 0 1 21.107 0v41.727h20.129V47.67a10.554 10.554 0 1 1 21.107 0v137.469L424.014 240.7v33.248h19.961v-28.732l26.518-55.558V47.67a30.55 30.55 0 0 0-30.514-30.515z" data-original="#ea7513" class=""></path></g></svg>